<svg version="1.2" xmlns="http://www.w3.org/2000/svg" viewBox="0 0 570 250" width="570" height="250"><style></style><path  d="m104.7 206.3l-13.7-23.8q-6.6-13.2-15.7-13.2-2.7 0-6.1 1.5l-0.7-0.7q3.5-3.5 11.4-6.8 8-3.3 14-3.3 5.3 0 7 2.7l15.5 26.9q1.2-0.9 2.1-3.3 1-2.6 1-5v-49.4l-25.6 8.9q-1.4 0.5-2.6 0.5-2.8 0-4.5-2.1-1.5-2.1-1.5-4.5v-39.9q0-3.9 1.5-6.5 1.7-2.7 4.1-4.5 2.5-1.8 7.5-4.6 7.2-4.2 12.3-8.1l0.6 0.6q-0.8 1-2.3 3-1.3 1.9-1.9 3.9-0.6 1.9-0.6 5.1v3.7l4.5-4q4.5-3.9 7-6.5 2.7-2.7 4.7-5.8l22.4 25.6q-3.4 3.8-5 6.5-1.7 2.7-3.6 6.9-2.4 5.2-3.9 7.6l-0.6-0.4q0.3-1.5 0.3-2.4 0-3.6-1.5-6.2-1.4-2.5-3.3-5.1l-14.7-17.7q-3.3 2.3-6.3 5.9v40.3l27.2-9.6q1.1-0.3 1.7-0.3 2.2 0 3.7 1.5 1.6 1.4 1.6 2.7v54.3q-3.5 0-11 3.9-7.3 3.8-14.5 9.8-7.2 5.8-10.5 11.8zm78-4.6l-0.6-0.6q2.4-3 3.3-5.4 0.9-2.6 0.9-5.7v-8.7l-11.6 19.8-18.9-8.9q-2.4-1-4.3-3.4-1.9-2.6-1.9-5.1v-24.2q0-3.6 6.2-6.7l30.5-15.8v-17.4q0-2.2-2.1-3.4l-10.8 10.2q-5.3 4.8-5.3 11.8 0 1.7 0.2 2.6l-0.6 0.6q-9.5-15.8-9.5-22.1 0-2.2 1.2-3.3l16.2-13.9 23.1 15.6q8.6 5.7 8.6 13.3v51q0 1.8-4.2 5.7-4 3.9-9.9 8-5.9 3.9-10.5 6zm-2.9-16.8l6.5-11.3v-31.8l-13.1 7.5q-1.3 0.8-2.1 2.1-0.5 1.2-0.5 2.6v22.2q0 3 3 4.8zm59.8 32.2l-0.6-0.6q0-8.4 2.1-13.9 2.3-5.6 4.5-8.1 2.4-2.7 8.9-9v-56q0-2.8-2.3-5.1-2.1-2.4-6.3-5.5l-7.2 14.2v67.4l-0.6 0.6q-1.8-3.3-4.3-5.4-2.6-2.3-6.8-5.1-4.8-3.2-7-5.6-2.3-2.5-2.3-6.6v-77.4q9.9-5.4 17-11.4 7-6.1 17.7-18.4l0.6 0.6q-3.2 4.2-8.7 15.1-5.6 11-5.6 15.2v22.5l15.6-31.1v8.6q0.9 0.6 1.8 1.2 1.1 0.4 1.8 0.9 8.1 4.6 12.8 8.8 4.8 4.1 4.8 9.2v64.3q-7 2.6-14.7 7.4-7.8 4.8-13.8 10.9-6 6.2-7.4 12.3zm42.4-16l-0.5-0.6q4.8-6.5 4.8-22.2v-55.4q0-3.7 2.7-6 2.8-2.4 9.5-6.3 8.2-4.5 13.5-8.5v0.7q-4.7 6.5-4.7 14.9v5.2l18.7-21.1 12.8 20.7q-2.9 3.1-5 7.8-2.1 4.7-5.1 12.7-1.3 3.9-3 7.7-1.5 3.7-2.8 6l-0.6-0.5q0.9-2.2 0.9-6.6 0-7.8-2.4-16.8-2.3-9.1-6.2-13.5l-7.3 7.7v51.3q0 3.4-1.7 6-1.6 2.5-4.2 4.3-2.4 1.8-7.6 5-1.1 0.6-4.8 2.8-3.6 2.1-7 4.7zm74-101l-13-13 13.3-13.5 13.2 13.2zm-15.1 100.9l-0.6-0.6q2.2-3 3.1-6.4 1.1-3.6 1.1-8.3v-61.3q0-4.4 3.1-7.4 3.2-3 10.5-7.3 9.6-6.3 11.6-7.7l0.6 0.6q-4.8 6.5-4.8 15v62.3q0 3-3.2 6-3.1 2.8-10.8 7.8-6.7 4.5-10.6 7.3zm31.5 0l-0.6-0.6q4.8-6.4 4.8-14.8v-61.4q0-4.6 3-7.5 3-2.8 9.9-6.7 8.7-5.3 12.3-8l0.6 0.6q-4.8 6.5-4.8 15v6.9l15.6-31v8.5q0.9 0.6 1.8 1.2 1 0.5 1.8 0.9 8.1 4.7 12.7 8.9 4.8 4 4.8 9.1v56.9q0 3.3-3.6 6.6-3.4 3.1-12.1 9.1l-8.9 6.3-0.6-0.6q4.2-5.7 4.2-15v-55.9q0-2.9-2.2-5.1-2.1-2.4-6.3-5.6l-7.2 14.3v46q0 3.2-3.5 6.3-3.4 3-11.5 8.6-7.2 4.8-10.2 7zm104.1 0.6l-0.6-0.6q2.4-3 3.3-5.4 0.9-2.5 0.9-5.7v-8.7l-11.6 19.8-18.9-8.8q-2.4-1.1-4.3-3.5-2-2.5-2-5.1v-24.1q0-3.6 6.3-6.8l30.5-15.7v-17.4q0-2.3-2.1-3.5l-10.8 10.2q-5.3 4.9-5.3 11.9 0 1.6 0.2 2.5l-0.6 0.6q-9.5-15.7-9.5-22 0-2.3 1.2-3.3l16.2-14 23.1 15.6q8.6 5.7 8.6 13.4v51q0 1.8-4.2 5.7-4.1 3.9-9.9 7.9-5.9 3.9-10.5 6zm-2.9-16.8l6.5-11.2v-31.8l-13.1 7.5q-1.3 0.7-2.1 2.1-0.6 1.2-0.6 2.5v22.2q0 3 3 4.8z"/><path  d="m355.9 104.4l-3.8-3.7 3.5-3.6-4.8 0.9q-1.9-2.1-1.9-6 0-5.5 4.6-17.4l2.1-5.1q-1.8-4.7-4.5-10.2l-1.6-3.6-2.7 5.4-1 1.9-1.3 2.6-2 4.1q2.3 3.1 3.2 6.2 1.2 3.2 1.2 6.2 0 2.4-1.2 4.8-0.9 2.2-2.9 3.8-1.9 1.4-4.3 1.4-5.7 0-5.7-6.3 0-3.4 1.8-8.7 2-5.5 4.8-10.3-2.2-2.1-4.8-3.3-2.5-1-5.7-1-4.8 0-9.2 1.9-4.6 2-7.6 5.2-3 3-3 6.2 0 1.9 1.2 2.4 1 0.5 3.8 0.5 0.9 0 1.3 0.3 0.4 0.2 0.4 0.5 0 0.4-0.4 0.6-0.6 0.3-1.2 0.3-2 0-3.8-1.3-1.8-1.2-2.8-3.3-1.1-1.9-1.1-3.6 0-3.5 2.5-6 2.7-2.7 6.6-4 4.3-1.4 9-1.4 4.5 0 8.3 1.5 3.9 1.5 6.6 4 4.4-8.2 7.1-16-1.3-1.8-2.8-3.5-8.3-9.4-19.7-9.4-4 0-7 1.1-3.7 1.2-6.1 4-2.5 3-2.5 7 0 2.9 1.2 5 1.4 2.5 3.9 3.9 2.5 1.7 5.7 1.7 2.7 0 5.1-1.7-0.8-0.4-1.2-1.1-0.4-0.7-0.3-1.5 0-0.7 0.5-1 0.5-0.4 1-0.3 0.6 0 1.3 0.5 0.4 0.5 0.4 1.3-0.1 1.3-0.9 2.4-1 1-2.6 1.7-1.4 0.5-3.3 0.5-3.3 0-6.3-1.6-2.6-1.5-4.2-4.4-1.4-2.4-1.4-5.5 0-7.1 2.9-12.4 2.3-4.1 6.8-4.1 3 0 6.7 1.2 3.2 0.9 7.2 2.7 7.1 3 12.7 9.2 1.5 1.7 3 3.8l0.1-0.3q-0.8-1.9-1.4-4.5-0.6-2.6-0.6-4.3 0-4.2 2.7-4.2 1.4 0 2.6 1.9 1.1 1.7 1.9 4.4 0.7 2.6 0.7 4.5 0 1.8-2.9 7.8 3.1 5.9 6.2 13.5 3.1-7.6 6.2-13.5-2.9-6-2.9-7.8 0-1.9 0.7-4.5 0.8-2.7 1.9-4.4 1.2-1.9 2.7-1.9 2.7 0 2.7 4.2 0 1.7-0.7 4.3-0.3 2-1.3 4.5l0.1 0.3q1.5-2.1 3-3.8 5.3-6 12.7-9.2 4.2-1.8 7.2-2.7 3.7-1.2 6.6-1.2 4.5 0 6.9 4.1 2.3 4.5 2.8 11.1 0.2 4-1.3 6.8-1.7 2.9-4.2 4.4-2.9 1.6-6.3 1.6-1.9 0-3.3-0.5-1.8-0.8-2.6-1.7-0.9-1.1-1-2.4 0-0.8 0.4-1.3 0.7-0.5 1.3-0.5h0.2q0.5 0 0.9 0.3 0.4 0.3 0.4 1v0.3q0 0.6-0.3 1.2-0.3 0.7-1.2 1.1 2.5 1.7 5.2 1.7 3 0 5.7-1.7 2.4-1.4 3.9-3.9 1.2-2.3 1.2-4.8 0-4.4-2.6-7.2-2.3-2.8-6.1-4-3-1.1-7-1.1-11.4 0-19.7 9.4-1.1 1.3-2.7 3.5 2.4 7.7 7 16 2.7-2.5 6.6-4 3.8-1.5 8.3-1.5 4.8 0 9 1.4 4.2 1.3 6.6 4 2.5 2.5 2.5 6 0 1.7-1 3.6-1.1 2.1-2.9 3.3-1.8 1.3-3.8 1.3-0.5 0-1.2-0.3-0.4-0.2-0.4-0.6 0-0.3 0.4-0.5 0.4-0.3 1.3-0.3 2.8 0 3.9-0.5 1.2-0.5 1.2-2.4 0-3.2-3.1-6.2-2.9-3.2-7.6-5.2-4.4-1.9-9.2-1.9-3.2 0-5.6 1-2.7 1.2-4.9 3.3 2.8 4.8 4.8 10.3 1.9 5.3 1.9 8.7 0 6.3-5.8 6.3-2.4 0-4.3-1.4-1.9-1.7-2.9-3.8-1.2-2.4-1.2-4.8 0-3 1.2-6.2 1-3.1 3.2-6.2l-2-4.1q-0.6-1.1-2.2-4.5l-2.8-5.4-1.6 3.6q-2.6 5.5-4.5 10.2l2.1 5.1q4.6 11.9 4.6 17.4 0 3.8-1.8 6l-5.3-1 3.7 3.7zm-8.9-55.7q1.9-6.3 1.9-9.2 0-2.7-1.5-2.7-1.1 0-1.6 1.1-0.5 0.9-0.5 2.6 0 2.1 0.5 4.2 0.4 1.6 1.2 4zm18 0q0.8-2.4 1.2-4 0.6-2.1 0.6-4.2 0-1.7-0.6-2.6-0.4-1.1-1.5-1.1-1.5 0-1.5 2.7 0 2.9 1.8 9.2zm-27.3 43q1.1 0 2.6-1.4 1.3-1.4 2.4-3.5 1-1.9 1-3.8 0-1-0.5-1.9 2 0.4 3.1 2.1v-1.3q0-2.4-0.9-5.9-1.1-3.1-3-5.9-3.1 6.4-4.9 10.8-2 5-2 8 0 2.8 2.2 2.8zm36.7 0q2.2 0 2.2-2.8 0-3-2.1-8-1.7-4.4-4.8-10.8-2.1 3.1-3 5.9-1 3.5-1 5.9l0.1 1.3q1.1-1.7 3-2.1-0.4 0.9-0.4 1.9 0 1.9 1 3.8 1 2.1 2.4 3.5 1.4 1.4 2.6 1.4zm-18.4 5q1.8-0.7 3-3 1.3-2.9 1.3-7.2 0-5.1-2.5-11.7l-1.8-4.5-1.8 4.5q-2.4 6.6-2.4 11.7 0 4.3 1.3 7.2 1.1 2.3 2.9 3z"/></svg>