<svg xmlns="http://www.w3.org/2000/svg" xmlns:xlink="http://www.w3.org/1999/xlink" width="1600" zoomAndPan="magnify" viewBox="0 0 1200 675.000002" height="900" preserveAspectRatio="xMidYMid meet" version="1.0"><defs><clipPath id="2cbafc0977"><path d="M 0.886719 0 L 1199.113281 0 L 1199.113281 674 L 0.886719 674 Z M 0.886719 0 " clip-rule="nonzero"/></clipPath><clipPath id="c2c3e27a78"><path d="M 943 282 L 1131.558594 282 L 1131.558594 471 L 943 471 Z M 943 282 " clip-rule="nonzero"/></clipPath><clipPath id="acd5174ada"><path d="M 798 255 L 968 255 L 968 471.800781 L 798 471.800781 Z M 798 255 " clip-rule="nonzero"/></clipPath></defs><g clip-path="url(#2cbafc0977)"><path fill="#ffffff" d="M 0.886719 0 L 1199.113281 0 L 1199.113281 674 L 0.886719 674 Z M 0.886719 0 " fill-opacity="1" fill-rule="nonzero"/><path fill="#f2f0e9" d="M 0.886719 0 L 1199.113281 0 L 1199.113281 674 L 0.886719 674 Z M 0.886719 0 " fill-opacity="1" fill-rule="nonzero"/></g><g clip-path="url(#c2c3e27a78)"><path fill="#720455" d="M 1131.617188 373.578125 L 1131.617188 286.746094 C 1131.617188 284.167969 1129.527344 282.082031 1126.953125 282.082031 L 1040.121094 282.082031 C 1038.707031 282.082031 1037.371094 282.722656 1036.484375 283.824219 C 1035.597656 284.925781 1035.261719 286.371094 1035.566406 287.75 C 1037.527344 296.660156 1038.65625 303.992188 1038.65625 307.867188 C 1038.65625 310.5 1038.65625 316.660156 1036.554688 318.0625 C 1036.347656 318.203125 1035.996094 318.382812 1035.316406 318.382812 C 1034.503906 318.382812 1033.457031 318.125 1032.289062 317.636719 C 1028.585938 316.09375 1023.769531 314.328125 1019.324219 314.328125 C 1016.707031 314.328125 1014.453125 314.949219 1012.625 316.167969 C 1008.929688 318.625 1007.058594 323.429688 1007.058594 330.441406 C 1007.058594 337.449219 1008.929688 342.253906 1012.625 344.71875 C 1014.453125 345.9375 1016.707031 346.554688 1019.320312 346.554688 C 1023.769531 346.554688 1028.585938 344.789062 1032.285156 343.246094 C 1033.457031 342.757812 1034.503906 342.5 1035.316406 342.5 C 1035.996094 342.5 1036.347656 342.683594 1036.550781 342.820312 C 1038.65625 344.222656 1038.65625 350.382812 1038.65625 353.011719 C 1038.65625 356.753906 1037.585938 363.832031 1035.71875 372.429688 C 1035.644531 372.773438 1035.75 373.109375 1035.753906 373.453125 C 1030.742188 372.335938 1020.074219 370.117188 1014.035156 370.117188 C 1009.414062 370.117188 998.589844 370.117188 998.589844 378.398438 C 998.589844 379.878906 998.960938 381.480469 999.71875 383.300781 C 1001.085938 386.585938 1002.65625 390.804688 1002.65625 394.367188 C 1002.65625 397.390625 1001.515625 398.707031 1000.660156 399.433594 C 998.871094 400.949219 995.773438 401.71875 991.460938 401.71875 C 980.265625 401.71875 980.265625 396.566406 980.265625 394.367188 C 980.265625 390.800781 981.832031 386.582031 983.199219 383.304688 C 983.957031 381.480469 984.328125 379.878906 984.328125 378.398438 C 984.328125 370.117188 973.511719 370.117188 968.890625 370.117188 C 962.933594 370.117188 952.460938 372.261719 946.746094 373.539062 C 944.617188 374.015625 943.101562 375.910156 943.101562 378.09375 L 943.101562 465.933594 C 943.101562 468.507812 945.1875 470.597656 947.765625 470.597656 L 1035.605469 470.597656 C 1036.40625 470.597656 1037.070312 470.210938 1037.738281 469.847656 C 1038.460938 470.289062 1039.253906 470.597656 1040.121094 470.597656 L 1126.953125 470.597656 C 1129.53125 470.597656 1131.617188 468.507812 1131.617188 465.933594 L 1131.617188 378.097656 C 1131.617188 377.296875 1131.230469 376.625 1130.867188 375.960938 C 1131.308594 375.238281 1131.617188 374.445312 1131.617188 373.578125 Z M 1035.316406 337.835938 C 1033.871094 337.835938 1032.257812 338.203125 1030.492188 338.941406 C 1027.164062 340.324219 1022.871094 341.890625 1019.320312 341.890625 C 1017.761719 341.890625 1016.34375 341.585938 1015.214844 340.832031 C 1012.894531 339.289062 1011.722656 335.792969 1011.722656 330.441406 C 1011.722656 325.089844 1012.894531 321.59375 1015.214844 320.050781 C 1016.34375 319.296875 1017.761719 318.996094 1019.320312 318.996094 C 1022.871094 318.996094 1027.164062 320.558594 1030.492188 321.945312 C 1032.257812 322.679688 1033.871094 323.046875 1035.316406 323.046875 C 1036.761719 323.046875 1038.039062 322.679688 1039.140625 321.945312 C 1043 319.375 1043.320312 313.332031 1043.320312 307.867188 C 1043.320312 302.015625 1041.203125 291.660156 1040.121094 286.746094 L 1126.953125 286.746094 L 1126.953125 373.324219 C 1121.105469 372.03125 1111.515625 370.117188 1105.832031 370.117188 C 1101.210938 370.117188 1090.390625 370.117188 1090.390625 378.398438 C 1090.390625 379.878906 1090.757812 381.480469 1091.515625 383.300781 C 1092.882812 386.585938 1094.453125 390.804688 1094.453125 394.367188 C 1094.453125 397.390625 1093.3125 398.707031 1092.457031 399.4375 C 1090.667969 400.949219 1087.570312 401.71875 1083.257812 401.71875 C 1072.058594 401.71875 1072.058594 396.566406 1072.058594 394.367188 C 1072.058594 390.804688 1073.628906 386.582031 1074.996094 383.304688 C 1075.753906 381.480469 1076.125 379.878906 1076.125 378.398438 C 1076.125 370.117188 1065.304688 370.117188 1060.683594 370.117188 C 1055.242188 370.117188 1046.101562 371.90625 1040.332031 373.15625 C 1041.457031 367.957031 1043.320312 358.515625 1043.320312 353.011719 C 1043.320312 347.550781 1043 341.507812 1039.140625 338.9375 C 1038.039062 338.203125 1036.761719 337.835938 1035.316406 337.835938 Z M 947.765625 378.09375 C 952.003906 377.144531 963.125 374.78125 968.890625 374.78125 C 976.539062 374.78125 979.660156 375.832031 979.660156 378.398438 C 979.660156 379.238281 979.402344 380.285156 978.894531 381.507812 C 977.359375 385.1875 975.597656 389.976562 975.597656 394.367188 C 975.597656 399.847656 978.351562 406.382812 991.460938 406.382812 C 996.984375 406.382812 1000.980469 405.273438 1003.671875 402.996094 C 1006.097656 400.945312 1007.324219 398.042969 1007.324219 394.367188 C 1007.324219 389.972656 1005.558594 385.1875 1004.027344 381.507812 C 1003.515625 380.285156 1003.257812 379.238281 1003.257812 378.398438 C 1003.257812 375.832031 1006.378906 374.78125 1014.035156 374.78125 C 1019.933594 374.78125 1031.421875 377.253906 1035.425781 378.152344 C 1035.433594 378.441406 1035.382812 378.726562 1035.445312 379.011719 C 1037.457031 388.027344 1038.65625 395.746094 1038.65625 399.664062 C 1038.65625 402.292969 1038.65625 408.457031 1036.554688 409.859375 C 1036.347656 409.996094 1035.996094 410.179688 1035.320312 410.179688 C 1034.507812 410.179688 1033.460938 409.917969 1032.292969 409.429688 C 1028.585938 407.890625 1023.769531 406.125 1019.320312 406.125 C 1016.707031 406.125 1014.453125 406.742188 1012.621094 407.964844 C 1008.925781 410.429688 1007.054688 415.230469 1007.054688 422.238281 C 1007.054688 429.246094 1008.929688 434.046875 1012.625 436.511719 C 1014.453125 437.730469 1016.707031 438.351562 1019.324219 438.351562 C 1023.773438 438.351562 1028.589844 436.582031 1032.285156 435.042969 C 1033.457031 434.554688 1034.507812 434.296875 1035.316406 434.296875 C 1035.996094 434.296875 1036.347656 434.480469 1036.554688 434.617188 C 1038.65625 436.015625 1038.65625 442.179688 1038.65625 444.808594 C 1038.65625 450.3125 1036.496094 460.710938 1035.5625 464.925781 C 1035.492188 465.261719 1035.570312 465.59375 1035.570312 465.933594 L 947.765625 465.933594 Z M 1040.378906 465.933594 C 1041.667969 460.074219 1043.582031 450.464844 1043.582031 444.808594 C 1043.582031 438.871094 1043.058594 433.03125 1039.28125 430.515625 C 1038.144531 429.757812 1036.804688 429.371094 1035.292969 429.371094 C 1033.832031 429.371094 1032.183594 429.75 1030.390625 430.496094 C 1027.375 431.753906 1022.945312 433.425781 1019.308594 433.425781 C 1017.667969 433.425781 1016.375 433.09375 1015.355469 432.414062 C 1012.566406 430.554688 1011.980469 425.851562 1011.980469 422.238281 C 1011.980469 418.621094 1012.566406 413.921875 1015.355469 412.0625 C 1016.375 411.382812 1017.667969 411.050781 1019.308594 411.050781 C 1022.945312 411.050781 1027.378906 412.722656 1030.394531 413.976562 C 1032.210938 414.734375 1033.816406 415.101562 1035.292969 415.101562 C 1036.804688 415.101562 1038.148438 414.714844 1039.289062 413.953125 C 1043.0625 411.441406 1043.582031 405.601562 1043.582031 399.664062 C 1043.582031 393.691406 1041.402344 383.15625 1040.277344 378.085938 C 1040.605469 378.085938 1040.9375 378.050781 1041.269531 377.980469 C 1049.867188 376.113281 1056.945312 375.042969 1060.683594 375.042969 C 1069.921875 375.042969 1071.199219 376.652344 1071.199219 378.394531 C 1071.199219 379.207031 1070.945312 380.21875 1070.449219 381.40625 C 1068.90625 385.109375 1067.136719 389.925781 1067.136719 394.367188 C 1067.136719 399.964844 1069.933594 406.640625 1083.257812 406.640625 C 1096.582031 406.640625 1099.378906 399.964844 1099.378906 394.367188 C 1099.378906 389.875 1097.484375 384.820312 1096.058594 381.40625 C 1095.566406 380.21875 1095.3125 379.207031 1095.3125 378.398438 C 1095.3125 376.65625 1096.585938 375.042969 1105.832031 375.042969 C 1109.699219 375.042969 1117.03125 376.167969 1125.949219 378.132812 C 1126.28125 378.207031 1126.617188 378.242188 1126.953125 378.242188 L 1126.953125 465.933594 Z M 1040.378906 465.933594 " fill-opacity="1" fill-rule="nonzero"/></g><path fill="#720455" d="M 952.0625 320.957031 C 953.410156 320.957031 953.851562 321.378906 954.285156 322.261719 C 954.644531 322.988281 954.863281 324.007812 954.945312 325.296875 C 955.191406 329.304688 955.730469 334.410156 957.683594 338.386719 C 960.378906 343.871094 964.691406 345.019531 967.832031 345.019531 C 970.652344 345.019531 973.835938 344.128906 977.566406 342.292969 C 982.582031 339.828125 985.71875 337.03125 987.15625 333.738281 C 988.457031 330.757812 988.277344 327.539062 986.621094 324.167969 C 984.640625 320.132812 980.710938 316.433594 977.925781 314 C 976.957031 313.148438 976.285156 312.351562 975.929688 311.628906 C 975.160156 310.0625 975.59375 308.054688 983.886719 303.980469 C 987.40625 302.25 994.863281 299.921875 1003.839844 297.75 C 1005.042969 297.460938 1006.082031 296.703125 1006.726562 295.644531 C 1007.371094 294.585938 1007.570312 293.316406 1007.277344 292.113281 C 1005.925781 286.550781 1003.273438 276.4375 1000.6875 271.175781 C 998.066406 265.84375 995.027344 260.835938 990.53125 260.242188 C 990.328125 260.21875 989.882812 260.1875 989.679688 260.1875 C 987.238281 260.1875 984.832031 261.523438 982.535156 264.15625 C 979.382812 267.75 974.707031 272.542969 970.578125 272.542969 C 970.351562 272.542969 970.125 272.527344 969.894531 272.496094 C 969.519531 272.449219 969.1875 272.214844 968.832031 272.082031 C 968.113281 273.566406 967.136719 274.867188 965.859375 275.949219 C 966.957031 276.542969 968.09375 276.96875 969.285156 277.125 C 969.71875 277.179688 970.148438 277.207031 970.578125 277.207031 C 976.503906 277.207031 981.917969 271.9375 986.050781 267.222656 C 987.015625 266.121094 988.402344 264.855469 989.679688 264.855469 C 989.757812 264.855469 989.839844 264.859375 989.921875 264.871094 C 992.566406 265.21875 995.425781 271.039062 996.5 273.230469 C 998.964844 278.242188 1001.648438 288.714844 1002.742188 293.214844 C 998.109375 294.335938 987.28125 297.109375 981.832031 299.789062 C 977.410156 301.964844 968.203125 306.484375 971.742188 313.6875 C 972.378906 314.984375 973.398438 316.234375 974.855469 317.511719 C 977.339844 319.683594 980.824219 322.949219 982.433594 326.226562 C 983.46875 328.335938 983.617188 330.183594 982.882812 331.871094 C 981.917969 334.078125 979.4375 336.175781 975.511719 338.105469 C 972.226562 339.722656 969.738281 340.355469 967.832031 340.355469 C 964.445312 340.355469 962.871094 338.363281 961.875 336.328125 C 960.28125 333.089844 959.824219 328.578125 959.601562 325.007812 C 959.484375 323.074219 959.113281 321.503906 958.476562 320.207031 C 957.039062 317.28125 954.667969 316.292969 952.0625 316.292969 C 948.253906 316.292969 943.941406 318.410156 941.3125 319.703125 C 936.0625 322.28125 927.703125 328.75 923.769531 331.890625 L 910.296875 304.476562 L 903.707031 301.640625 L 919.582031 333.949219 C 920.207031 335.21875 921.371094 336.136719 922.753906 336.445312 C 923.089844 336.519531 923.433594 336.554688 923.769531 336.554688 C 924.820312 336.554688 925.847656 336.203125 926.683594 335.535156 C 930.054688 332.84375 938.429688 326.316406 943.371094 323.890625 C 945.605469 322.792969 949.335938 320.957031 952.0625 320.957031 Z M 952.0625 320.957031 " fill-opacity="1" fill-rule="nonzero"/><path fill="#720455" d="M 893.996094 271.304688 L 885.472656 253.960938 L 964.304688 215.222656 C 967.023438 218.601562 974.046875 227.542969 976.589844 232.71875 C 977.667969 234.910156 980.53125 240.734375 979.191406 243.039062 C 978.511719 244.207031 976.519531 244.570312 974.96875 244.664062 C 968.253906 245.082031 960.136719 246.28125 956.878906 251.886719 C 956.285156 252.917969 955.925781 254.058594 955.71875 255.277344 C 956.53125 255.105469 957.335938 254.894531 958.179688 254.894531 C 959.015625 254.894531 959.832031 255.023438 960.636719 255.191406 C 960.742188 254.878906 960.75 254.515625 960.917969 254.230469 C 963.085938 250.496094 970.140625 249.640625 975.257812 249.324219 C 979.167969 249.082031 981.851562 247.753906 983.230469 245.378906 C 985.507812 241.453125 983.398438 235.984375 980.777344 230.660156 C 978.140625 225.289062 971.601562 216.847656 967.941406 212.296875 C 967.03125 211.164062 965.679688 210.554688 964.304688 210.554688 C 963.609375 210.554688 962.902344 210.710938 962.246094 211.035156 L 933.574219 225.125 C 932.84375 223.917969 931.917969 222.824219 930.640625 222.019531 C 926.253906 219.273438 920.503906 220.605469 917.773438 224.96875 L 910.585938 236.421875 L 883.414062 249.773438 C 882.304688 250.320312 881.457031 251.285156 881.054688 252.457031 C 880.65625 253.628906 880.738281 254.910156 881.285156 256.019531 L 887.402344 268.46875 Z M 893.996094 271.304688 " fill-opacity="1" fill-rule="nonzero"/><path fill="#720455" d="M 829.605469 226.980469 C 827.980469 241.386719 838.34375 254.378906 852.75 256 C 867.152344 257.621094 880.144531 247.261719 881.765625 232.855469 C 883.390625 218.449219 873.027344 205.457031 858.621094 203.835938 C 844.21875 202.214844 831.226562 212.574219 829.605469 226.980469 Z M 829.605469 226.980469 " fill-opacity="1" fill-rule="nonzero"/><g clip-path="url(#acd5174ada)"><path fill="#720455" d="M 914.910156 303.539062 C 916.09375 304.046875 917.347656 304.296875 918.597656 304.296875 C 920.5 304.296875 922.390625 303.714844 923.992188 302.578125 L 963.582031 274.527344 C 967.789062 271.546875 968.78125 265.722656 965.800781 261.515625 C 962.820312 257.3125 956.996094 256.316406 952.792969 259.296875 L 917.472656 284.324219 L 885.5 270.570312 L 874.800781 265.972656 C 874.683594 265.921875 874.558594 265.941406 874.441406 265.894531 L 874.414062 265.824219 L 831.125 256.035156 C 827.226562 255.152344 823.183594 257.386719 822.125 261.242188 C 822.117188 261.269531 822.109375 261.296875 822.101562 261.328125 L 802.648438 334.941406 C 801.0625 338.539062 800.910156 342.753906 802.605469 346.644531 L 824.804688 397.644531 L 800.136719 451 C 796.757812 458.3125 799.945312 466.976562 807.253906 470.355469 C 809.234375 471.273438 811.316406 471.707031 813.363281 471.707031 C 818.871094 471.707031 824.144531 468.566406 826.609375 463.238281 L 854.023438 403.941406 C 855.769531 400.164062 855.816406 395.816406 854.15625 392 L 844.277344 369.304688 L 873.027344 401.089844 L 874.621094 456.375 C 874.847656 464.28125 881.332031 470.535156 889.1875 470.535156 C 889.332031 470.535156 889.472656 470.53125 889.617188 470.53125 C 897.667969 470.296875 904.003906 463.582031 903.773438 455.53125 L 902.023438 394.875 C 901.921875 391.40625 900.589844 388.085938 898.261719 385.511719 L 864.433594 348.113281 L 879.9375 289.4375 L 883.019531 289.824219 L 896.375 295.566406 Z M 914.910156 303.539062 " fill-opacity="1" fill-rule="nonzero"/></g></svg>